<svg xmlns="http://www.w3.org/2000/svg" viewBox="0 0 24 24" fill="currentColor">
    <path d="M19.54 5.23A16.46 16.46 0 0 0 15.42 4l-.2.39c1.47.36 2.16.86 2.16.86a13.87 13.87 0 0 0-4.46-1.12 14.65 14.65 0 0 0-2.99.03h-.25a13.36 13.36 0 0 0-4.06 1.09s.72-.53 2.28-.89L7.75 4a16.46 16.46 0 0 0-4.14 1.23S1.5 8.29 1.5 14.34c0 0 1.23 2.12 4.47 2.23 0 0 .54-.65.98-1.2-1.85-.55-2.55-1.71-2.55-1.71s.15.1.42.24l.06.04c.04.02.08.05.12.07.35.19.7.34 1.02.46.57.22 1.25.43 2.03.57a9.8 9.8 0 0 0 3.58.01 8.7 8.7 0 0 0 2-.57 8.04 8.04 0 0 0 1.61-.82s-.73 1.19-2.64 1.73c.44.55.97 1.18.97 1.18 3.24-.11 4.47-2.23 4.47-2.23 0-6.05-2.5-9.11-2.5-9.11ZM8.3 13.29c-.84 0-1.52-.76-1.52-1.69 0-.93.67-1.68 1.52-1.68.85 0 1.54.76 1.52 1.68 0 .93-.67 1.69-1.52 1.69Zm5.43 0c-.84 0-1.52-.76-1.52-1.69 0-.93.67-1.68 1.52-1.68.85 0 1.53.76 1.52 1.68 0 .93-.67 1.69-1.52 1.69Z"/>
</svg>
